<svg xmlns="http://www.w3.org/2000/svg" xmlns:xlink="http://www.w3.org/1999/xlink" width="500" zoomAndPan="magnify" viewBox="0 0 375 374.999991" height="500" preserveAspectRatio="xMidYMid meet" version="1.0"><defs><clipPath id="f52301243c"><path d="M 4.222656 4.222656 L 370.972656 4.222656 L 370.972656 370.972656 L 4.222656 370.972656 Z M 4.222656 4.222656 " clip-rule="nonzero"/></clipPath></defs><g clip-path="url(#f52301243c)"><path fill="#2980b9" d="M 370.773438 187.5 C 370.773438 190.5 370.703125 193.496094 370.554688 196.492188 C 370.40625 199.488281 370.1875 202.480469 369.890625 205.464844 C 369.597656 208.449219 369.230469 211.425781 368.792969 214.390625 C 368.351562 217.359375 367.839844 220.3125 367.253906 223.253906 C 366.667969 226.195312 366.011719 229.121094 365.28125 232.03125 C 364.554688 234.941406 363.753906 237.832031 362.882812 240.703125 C 362.011719 243.570312 361.070312 246.417969 360.0625 249.242188 C 359.050781 252.066406 357.972656 254.863281 356.824219 257.636719 C 355.675781 260.40625 354.460938 263.148438 353.179688 265.859375 C 351.894531 268.570312 350.546875 271.25 349.132812 273.894531 C 347.71875 276.539062 346.242188 279.148438 344.699219 281.722656 C 343.15625 284.292969 341.554688 286.828125 339.886719 289.320312 C 338.222656 291.816406 336.496094 294.265625 334.707031 296.675781 C 332.921875 299.085938 331.078125 301.449219 329.171875 303.769531 C 327.269531 306.085938 325.3125 308.355469 323.296875 310.578125 C 321.285156 312.800781 319.214844 314.972656 317.09375 317.09375 C 314.972656 319.214844 312.800781 321.285156 310.578125 323.296875 C 308.355469 325.3125 306.085938 327.269531 303.769531 329.171875 C 301.449219 331.074219 299.085938 332.921875 296.675781 334.707031 C 294.265625 336.496094 291.816406 338.222656 289.320312 339.886719 C 286.828125 341.554688 284.292969 343.15625 281.722656 344.699219 C 279.148438 346.242188 276.539062 347.71875 273.894531 349.132812 C 271.25 350.546875 268.570312 351.894531 265.859375 353.179688 C 263.148438 354.460938 260.40625 355.675781 257.636719 356.824219 C 254.863281 357.972656 252.066406 359.050781 249.242188 360.0625 C 246.417969 361.070312 243.570312 362.011719 240.703125 362.882812 C 237.832031 363.753906 234.941406 364.554688 232.03125 365.28125 C 229.121094 366.011719 226.195312 366.667969 223.253906 367.253906 C 220.3125 367.839844 217.359375 368.351562 214.390625 368.792969 C 211.425781 369.230469 208.449219 369.597656 205.464844 369.890625 C 202.480469 370.1875 199.488281 370.40625 196.492188 370.554688 C 193.496094 370.703125 190.5 370.773438 187.5 370.773438 C 184.5 370.773438 181.503906 370.703125 178.507812 370.554688 C 175.511719 370.40625 172.519531 370.1875 169.535156 369.890625 C 166.550781 369.597656 163.574219 369.230469 160.609375 368.792969 C 157.640625 368.351562 154.6875 367.839844 151.746094 367.253906 C 148.800781 366.667969 145.875 366.011719 142.96875 365.28125 C 140.058594 364.554688 137.167969 363.753906 134.296875 362.882812 C 131.425781 362.011719 128.578125 361.070312 125.757812 360.0625 C 122.933594 359.050781 120.132812 357.972656 117.363281 356.824219 C 114.59375 355.675781 111.851562 354.460938 109.140625 353.179688 C 106.425781 351.894531 103.75 350.546875 101.105469 349.132812 C 98.457031 347.71875 95.851562 346.242188 93.277344 344.699219 C 90.703125 343.15625 88.171875 341.554688 85.675781 339.886719 C 83.183594 338.222656 80.730469 336.496094 78.324219 334.707031 C 75.914062 332.921875 73.550781 331.074219 71.230469 329.171875 C 68.914062 327.269531 66.640625 325.3125 64.417969 323.296875 C 62.195312 321.285156 60.023438 319.214844 57.902344 317.09375 C 55.785156 314.972656 53.714844 312.800781 51.703125 310.578125 C 49.6875 308.355469 47.730469 306.085938 45.824219 303.769531 C 43.921875 301.449219 42.078125 299.085938 40.292969 296.675781 C 38.503906 294.265625 36.777344 291.816406 35.113281 289.320312 C 33.445312 286.828125 31.839844 284.292969 30.300781 281.722656 C 28.757812 279.148438 27.277344 276.539062 25.863281 273.894531 C 24.453125 271.25 23.101562 268.570312 21.820312 265.859375 C 20.539062 263.148438 19.324219 260.40625 18.175781 257.636719 C 17.027344 254.863281 15.949219 252.066406 14.9375 249.242188 C 13.925781 246.417969 12.988281 243.570312 12.117188 240.703125 C 11.246094 237.832031 10.445312 234.941406 9.714844 232.03125 C 8.988281 229.121094 8.332031 226.195312 7.746094 223.253906 C 7.160156 220.3125 6.648438 217.359375 6.207031 214.390625 C 5.769531 211.425781 5.402344 208.449219 5.105469 205.464844 C 4.8125 202.480469 4.59375 199.488281 4.445312 196.492188 C 4.296875 193.496094 4.222656 190.5 4.222656 187.5 C 4.222656 184.5 4.296875 181.503906 4.445312 178.507812 C 4.59375 175.511719 4.8125 172.519531 5.105469 169.535156 C 5.402344 166.550781 5.769531 163.574219 6.207031 160.609375 C 6.648438 157.640625 7.160156 154.6875 7.746094 151.746094 C 8.332031 148.800781 8.988281 145.875 9.714844 142.96875 C 10.445312 140.058594 11.246094 137.167969 12.117188 134.296875 C 12.988281 131.425781 13.925781 128.578125 14.9375 125.757812 C 15.949219 122.933594 17.027344 120.132812 18.175781 117.363281 C 19.324219 114.59375 20.539062 111.851562 21.820312 109.140625 C 23.101562 106.429688 24.453125 103.75 25.863281 101.105469 C 27.277344 98.457031 28.757812 95.851562 30.300781 93.277344 C 31.839844 90.703125 33.445312 88.171875 35.113281 85.675781 C 36.777344 83.183594 38.503906 80.730469 40.292969 78.324219 C 42.078125 75.914062 43.921875 73.550781 45.824219 71.230469 C 47.730469 68.914062 49.6875 66.640625 51.703125 64.417969 C 53.714844 62.195312 55.785156 60.023438 57.902344 57.902344 C 60.023438 55.785156 62.195312 53.714844 64.417969 51.703125 C 66.640625 49.6875 68.914062 47.730469 71.230469 45.824219 C 73.550781 43.921875 75.914062 42.078125 78.324219 40.292969 C 80.730469 38.503906 83.183594 36.777344 85.675781 35.113281 C 88.171875 33.445312 90.703125 31.839844 93.277344 30.300781 C 95.851562 28.757812 98.457031 27.277344 101.105469 25.863281 C 103.75 24.449219 106.425781 23.101562 109.140625 21.820312 C 111.851562 20.539062 114.59375 19.324219 117.363281 18.175781 C 120.132812 17.027344 122.933594 15.949219 125.757812 14.9375 C 128.578125 13.925781 131.425781 12.988281 134.296875 12.117188 C 137.167969 11.246094 140.058594 10.445312 142.96875 9.714844 C 145.875 8.988281 148.800781 8.332031 151.746094 7.746094 C 154.6875 7.160156 157.640625 6.648438 160.609375 6.207031 C 163.574219 5.769531 166.550781 5.402344 169.535156 5.105469 C 172.519531 4.8125 175.511719 4.59375 178.507812 4.445312 C 181.503906 4.296875 184.5 4.222656 187.5 4.222656 C 190.5 4.222656 193.496094 4.296875 196.492188 4.445312 C 199.488281 4.59375 202.480469 4.8125 205.464844 5.105469 C 208.449219 5.402344 211.425781 5.769531 214.390625 6.207031 C 217.359375 6.648438 220.3125 7.160156 223.253906 7.746094 C 226.195312 8.332031 229.121094 8.988281 232.03125 9.714844 C 234.941406 10.445312 237.832031 11.246094 240.703125 12.117188 C 243.570312 12.988281 246.417969 13.925781 249.242188 14.9375 C 252.066406 15.949219 254.863281 17.027344 257.636719 18.175781 C 260.40625 19.324219 263.148438 20.539062 265.859375 21.820312 C 268.570312 23.101562 271.25 24.449219 273.894531 25.863281 C 276.539062 27.277344 279.148438 28.757812 281.722656 30.300781 C 284.292969 31.839844 286.828125 33.445312 289.320312 35.113281 C 291.816406 36.777344 294.265625 38.503906 296.675781 40.292969 C 299.085938 42.078125 301.449219 43.921875 303.769531 45.824219 C 306.085938 47.730469 308.355469 49.6875 310.578125 51.703125 C 312.800781 53.714844 314.972656 55.785156 317.09375 57.902344 C 319.214844 60.023438 321.285156 62.195312 323.296875 64.417969 C 325.3125 66.640625 327.269531 68.914062 329.171875 71.230469 C 331.078125 73.550781 332.921875 75.914062 334.707031 78.324219 C 336.496094 80.730469 338.222656 83.183594 339.886719 85.675781 C 341.554688 88.171875 343.15625 90.703125 344.699219 93.277344 C 346.242188 95.851562 347.71875 98.457031 349.132812 101.105469 C 350.546875 103.75 351.894531 106.429688 353.179688 109.140625 C 354.460938 111.851562 355.675781 114.59375 356.824219 117.363281 C 357.972656 120.132812 359.050781 122.933594 360.0625 125.757812 C 361.070312 128.578125 362.011719 131.425781 362.882812 134.296875 C 363.753906 137.167969 364.554688 140.058594 365.28125 142.96875 C 366.011719 145.875 366.667969 148.800781 367.253906 151.746094 C 367.839844 154.6875 368.351562 157.640625 368.792969 160.609375 C 369.230469 163.574219 369.597656 166.550781 369.890625 169.535156 C 370.1875 172.519531 370.40625 175.511719 370.554688 178.507812 C 370.703125 181.503906 370.773438 184.5 370.773438 187.5 Z M 370.773438 187.5 " fill-opacity="1" fill-rule="nonzero"/></g><path fill="#f2f2f2" d="M 288.125 152.875 C 297.933594 143.0625 297.933594 127.15625 288.117188 117.347656 C 278.304688 107.539062 262.398438 107.542969 252.589844 117.359375 L 165.636719 204.347656 L 122.230469 160.941406 C 112.421875 151.132812 96.511719 151.132812 86.703125 160.941406 C 76.890625 170.753906 76.890625 186.660156 86.703125 196.472656 L 147.878906 257.648438 C 152.589844 262.359375 158.980469 265.003906 165.644531 265.003906 C 172.308594 265.003906 178.703125 262.355469 183.410156 257.640625 Z M 288.125 152.875 " fill-opacity="1" fill-rule="nonzero"/></svg>